<?xml version="1.0" encoding="UTF-8" standalone="no"?>
<!DOCTYPE svg PUBLIC "-//W3C//DTD SVG 1.1//EN" "http://www.w3.org/Graphics/SVG/1.1/DTD/svg11.dtd">
<svg width="100%" height="100%" viewBox="0 0 248 284" version="1.1" xmlns="http://www.w3.org/2000/svg" xmlns:xlink="http://www.w3.org/1999/xlink" xml:space="preserve" xmlns:serif="http://www.serif.com/" style="fill-rule:evenodd;clip-rule:evenodd;stroke-linejoin:round;stroke-miterlimit:2;">
    <g transform="matrix(1,0,0,1,-2170.571166,-863.479268)">
        <g>
            <g transform="matrix(0.437988,0,0,0.250719,1634.024348,646.492301)">
                <path d="M1506.071,865.457L1788.701,1148.087L1789.221,1711.381L1506.071,1994.531L1225.027,1713.487L1225.658,1145.871L1506.071,865.457Z"/>
            </g>
            <g transform="matrix(3.896128,2.249431,-2.678588,1.546484,-2975.773572,-4922.132738)">
                <path d="M1982.691,921.042L1982.691,901.042L1977.691,901.042L1977.691,921.042L1982.691,921.042ZM1965.191,921.042L1967.691,921.042L1967.691,901.042L1965.191,901.042L1965.191,891.042L1992.691,891.042L1992.691,931.042L1965.191,931.042L1965.191,921.042Z" style="fill:white;fill-rule:nonzero;"/>
            </g>
            <g transform="matrix(3.861033,2.229169,0,3.105848,-5454.688341,-6547.79977)">
                <path d="M1998.543,1002.58L1998.543,1011.89L1985.754,1011.89L1985.754,1002.58L1998.543,1002.58ZM1978.097,1033.405L1985.754,1033.405L1985.754,1017.855L2005.597,1017.855L2005.597,993.405L1978.097,993.405L1978.097,1033.405Z" style="fill:white;fill-rule:nonzero;"/>
            </g>
            <g transform="matrix(3.8437,-2.219161,0,3.091225,-5656.229869,2863.374909)">
                <path d="M2069.779,885.701L2097.279,885.701L2097.279,895.701L2079.779,895.701L2079.779,900.701L2097.279,900.701L2097.279,925.701L2069.779,925.701L2069.779,915.701L2087.279,915.701L2087.279,910.701L2069.779,910.701L2069.779,885.701Z" style="fill:white;fill-rule:nonzero;"/>
            </g>
        </g>
    </g>
</svg>
